<?xml version="1.0" encoding="utf-8"?>
<!-- Generator: Adobe Illustrator 23.0.4, SVG Export Plug-In . SVG Version: 6.00 Build 0)  -->
<svg version="1.1" id="Layer_1" xmlns="http://www.w3.org/2000/svg" xmlns:xlink="http://www.w3.org/1999/xlink" x="0px" y="0px"
	 viewBox="0 0 1024 1024" style="enable-background:new 0 0 1024 1024;" xml:space="preserve">
<style type="text/css">
	.st0{fill:#FFFFFF;}
</style>
<g>
	<path class="st0" d="M406.9,749.6c-15,0-24.8,7.8-29.6,18.4c-2.7,6.5-3.7,11.2-4.1,19.1h67.4c-0.3-7.8-1.4-12.6-4.1-19.1
		C431.7,757.4,421.8,749.6,406.9,749.6z"/>
	<path class="st0" d="M924,0H100C44.8,0,0,44.8,0,100v824c0,55.2,44.8,100,100,100h824c55.2,0,100-44.8,100-100V100
		C1024,44.8,979.2,0,924,0z M285.4,892.1h-42.2l-95.9-148.7v148.7H100V649.9h42.2l95.9,148.3V649.9h47.3V892.1z M484.1,817.3H373.2
		c0,22.8,13.9,39.5,38.8,39.5c19.4,0,28.9-5.4,40.1-16.7l26.9,26.2c-18,18-35.4,27.9-67.4,27.9c-41.8,0-82-19.1-82-90.8
		c0-57.8,31.3-90.5,77.2-90.5c49.3,0,77.2,36.1,77.2,84.7V817.3z M495,309.7h47.3v99h82v-99h47.3v242.2h-47.3V450.5h-82v101.4H495
		V309.7z M700.1,892.1h-36.4l-37.1-111.3l-37.1,111.3h-36.4l-54.4-177.3h47l28.6,109.6l36.1-109.6h32.3L679,824.4l28.6-109.6h46.6
		L700.1,892.1z M838.6,894.2c-27.9,0-53.1-3.1-75.5-25.5l28.9-28.9c14.6,14.6,33.7,16.7,47.3,16.7c15.3,0,31.3-5.1,31.3-18.4
		c0-8.8-4.8-15-18.7-16.3L824,819c-32-3.1-51.7-17-51.7-49.7c0-36.7,32.3-56.5,68.4-56.5c27.6,0,50.7,4.8,67.7,20.8l-27.2,27.6
		c-10.2-9.2-25.9-11.9-41.2-11.9c-17.7,0-25.2,8.2-25.2,17c0,6.5,2.7,14,18.4,15.3l27.9,2.7c35,3.4,52.7,22.1,52.7,52.1
		C913.8,875.5,880.4,894.2,838.6,894.2z M868.9,551.9l-62.3-110.2l-31.3,37.4v72.8H728V309.7h47.3v105.5l85.4-105.5h57.5L837.9,406
		l86.1,146H868.9z"/>
</g>
</svg>
